<svg width="82" height="80" fill="none" xmlns="http://www.w3.org/2000/svg"><g filter="url(#a)"><path d="M9.906 21.485A32.698 32.698 0 0 0 6.5 36.047 32.701 32.701 0 0 0 9.948 50.6a33.695 33.695 0 0 0 9.6 11.636 34.948 34.948 0 0 0 13.819 6.434 35.506 35.506 0 0 0 15.314-.01 34.942 34.942 0 0 0 13.81-6.453 33.69 33.69 0 0 0 9.582-11.65A32.7 32.7 0 0 0 75.5 36" stroke="#1C40FC" stroke-width="5"/></g><g filter="url(#b)"><path d="M73.094 48.29a32.603 32.603 0 0 0-.238-25.152c-3.44-8.033-9.953-14.434-18.145-17.879a35.456 35.456 0 0 0-25.792-.638c-8.36 3.034-15.2 9.104-19.057 16.953" stroke="#302D2D" stroke-width="5"/></g><defs><filter id="a" x="0" y="20.376" width="82" height="59.624" filterUnits="userSpaceOnUse" color-interpolation-filters="sRGB"><feFlood flood-opacity="0" result="BackgroundImageFix"/><feColorMatrix in="SourceAlpha" values="0 0 0 0 0 0 0 0 0 0 0 0 0 0 0 0 0 0 127 0" result="hardAlpha"/><feOffset dy="4"/><feGaussianBlur stdDeviation="2"/><feComposite in2="hardAlpha" operator="out"/><feColorMatrix values="0 0 0 0 0 0 0 0 0 0 0 0 0 0 0 0 0 0 0.25 0"/><feBlend in2="BackgroundImageFix" result="effect1_dropShadow_10_47"/><feBlend in="SourceGraphic" in2="effect1_dropShadow_10_47" result="shape"/></filter><filter id="b" x="3.618" y="0" width="78.382" height="57.231" filterUnits="userSpaceOnUse" color-interpolation-filters="sRGB"><feFlood flood-opacity="0" result="BackgroundImageFix"/><feColorMatrix in="SourceAlpha" values="0 0 0 0 0 0 0 0 0 0 0 0 0 0 0 0 0 0 127 0" result="hardAlpha"/><feOffset dy="4"/><feGaussianBlur stdDeviation="2"/><feComposite in2="hardAlpha" operator="out"/><feColorMatrix values="0 0 0 0 0 0 0 0 0 0 0 0 0 0 0 0 0 0 0.25 0"/><feBlend in2="BackgroundImageFix" result="effect1_dropShadow_10_47"/><feBlend in="SourceGraphic" in2="effect1_dropShadow_10_47" result="shape"/></filter></defs></svg>